<?xml version="1.0" encoding="utf-8"?>
<!-- Generator: Adobe Illustrator 27.5.0, SVG Export Plug-In . SVG Version: 6.00 Build 0)  -->
<svg version="1.1" id="svg2" xmlns:svg="http://www.w3.org/2000/svg"
	 xmlns="http://www.w3.org/2000/svg" xmlns:xlink="http://www.w3.org/1999/xlink" x="0px" y="0px" viewBox="0 0 69.3 68.5"
	 style="enable-background:new 0 0 69.3 68.5;" xml:space="preserve">
<style type="text/css">
	.st0{clip-path:url(#SVGID_00000011023263489706956600000017164774923579580293_);}
	.st1{fill:#007B83;}
</style>
<g id="g11" transform="matrix(1.25,0,0,-1.25,-70.907758,525.57728)">
	<g id="g951" transform="matrix(12.649274,0,0,12.649274,-652.81904,-1374.4214)">
		<g>
			<defs>
				<rect id="SVGID_1_" x="21.2" y="107" width="75" height="65.2"/>
			</defs>
			<clipPath id="SVGID_00000104677301638016622710000008281211753676769688_">
				<use xlink:href="#SVGID_1_"  style="overflow:visible;"/>
			</clipPath>
			<g id="g953" style="clip-path:url(#SVGID_00000104677301638016622710000008281211753676769688_);">
				<g id="g959" transform="translate(60.6582,120.6377)">
					<path id="path961" class="st1" d="M-3.7,17.7C-3.7,17.7-3.7,17.7-3.7,17.7C-3.7,17.7-3.7,17.7-3.7,17.7
						c-0.4,0.5-0.8,1.3-0.1,1.9c0.5,0.5,1.2,0.1,1.7-0.3c0.3-0.2,0.6-0.4,0.8-0.3c0.2,0.2-0.1,0.6-0.1,0.7l0,0c0,0,0,0,0,0
						c0,0,0,0,0,0c0.2-0.2,0.2-0.4,0.1-0.5c-0.2-0.2-0.5,0-0.8,0.3C-2.8,20-3.4,20.4-4,19.8c-0.2-0.2-0.3-0.4-0.3-0.6
						c0.1,1,0.9,1.8,2,1.8c0.9,0,1.7-0.6,1.9-1.5c-0.1,0.3-0.4,0.6-0.5,0.8L-1,20.4c0,0,0,0,0,0c0,0,0,0,0,0
						c0.5-0.5,0.8-1.3,0.1-1.9c-0.5-0.5-1.2-0.1-1.7,0.3C-2.9,19-3.2,19.2-3.4,19c-0.1-0.1-0.1-0.1-0.1-0.2c0-0.6,0.2-1.1,0.5-1.6
						c0,0,0,0,0,0c-0.6,0.2-1.1,0.7-1.3,1.3C-4.1,18.2-3.9,17.9-3.7,17.7L-3.7,17.7z"/>
				</g>
				<g id="g963" transform="translate(65.9435,122.3894)">
					<path id="path965" class="st1" d="M-8.1,16.2h-0.2l0.3-0.8h0.1l0.2,0.5h0l0.2-0.5h0.1l0.3,0.8h-0.2l-0.2-0.5h0l-0.2,0.6h-0.1
						L-8,15.7h0L-8.1,16.2z"/>
				</g>
				<g id="g967" transform="translate(74.6537,121.9696)">
					<path id="path969" class="st1" d="M-15.4,16.6c0,0.1-0.1,0.1-0.2,0.1c-0.1,0-0.2-0.1-0.2-0.2c0-0.1,0.1-0.2,0.2-0.2
						c0.1,0,0.1,0,0.1-0.1c0-0.1,0-0.1-0.1-0.1c-0.1,0-0.1,0.1-0.1,0.1l-0.1-0.1c0.1-0.1,0.1-0.2,0.2-0.2c0.2,0,0.3,0.1,0.3,0.3
						c0,0.3-0.3,0.2-0.3,0.3c0,0.1,0,0.1,0.1,0.1c0.1,0,0.1,0,0.1-0.1L-15.4,16.6z"/>
				</g>
				<g id="g971" transform="translate(76.7773,122.3894)">
					<path id="path973" class="st1" d="M-17.2,16.2h-0.2v-0.8h0.4v0.1h-0.2V16.2z"/>
				</g>
			</g>
		</g>
	</g>
</g>
</svg>
